<svg id="visual" viewBox="0 0 900 600" width="900" height="600" xmlns="http://www.w3.org/2000/svg" xmlns:xlink="http://www.w3.org/1999/xlink" version="1.1"><rect x="0" y="0" width="900" height="600" fill="#141420"></rect><path d="M0 144L21.5 155.8C43 167.7 86 191.3 128.8 190.5C171.7 189.7 214.3 164.3 257.2 147.2C300 130 343 121 385.8 133.7C428.7 146.3 471.3 180.7 514.2 198.2C557 215.7 600 216.3 642.8 225.2C685.7 234 728.3 251 771.2 252.8C814 254.7 857 241.3 878.5 234.7L900 228L900 601L878.5 601C857 601 814 601 771.2 601C728.3 601 685.7 601 642.8 601C600 601 557 601 514.2 601C471.3 601 428.7 601 385.8 601C343 601 300 601 257.2 601C214.3 601 171.7 601 128.8 601C86 601 43 601 21.5 601L0 601Z" fill="#342850"></path><path d="M0 326L21.5 317.2C43 308.3 86 290.7 128.8 293.7C171.7 296.7 214.3 320.3 257.2 328.3C300 336.3 343 328.7 385.8 327.2C428.7 325.7 471.3 330.3 514.2 332C557 333.7 600 332.3 642.8 339C685.7 345.7 728.3 360.3 771.2 343.3C814 326.3 857 277.7 878.5 253.3L900 229L900 601L878.5 601C857 601 814 601 771.2 601C728.3 601 685.7 601 642.8 601C600 601 557 601 514.2 601C471.3 601 428.7 601 385.8 601C343 601 300 601 257.2 601C214.3 601 171.7 601 128.8 601C86 601 43 601 21.5 601L0 601Z" fill="#2b2345"></path><path d="M0 445L21.5 429.5C43 414 86 383 128.8 376.2C171.7 369.3 214.3 386.7 257.2 396.7C300 406.7 343 409.3 385.8 402.8C428.7 396.3 471.3 380.7 514.2 382.2C557 383.7 600 402.3 642.8 402C685.7 401.7 728.3 382.3 771.2 388.5C814 394.7 857 426.3 878.5 442.2L900 458L900 601L878.5 601C857 601 814 601 771.2 601C728.3 601 685.7 601 642.8 601C600 601 557 601 514.2 601C471.3 601 428.7 601 385.8 601C343 601 300 601 257.2 601C214.3 601 171.7 601 128.8 601C86 601 43 601 21.5 601L0 601Z" fill="#231f3a"></path><path d="M0 493L21.5 482.2C43 471.3 86 449.7 128.8 446.8C171.7 444 214.3 460 257.2 469.2C300 478.3 343 480.7 385.8 472.5C428.7 464.3 471.3 445.7 514.2 454.7C557 463.7 600 500.3 642.8 502.3C685.7 504.3 728.3 471.7 771.2 463.2C814 454.7 857 470.3 878.5 478.2L900 486L900 601L878.5 601C857 601 814 601 771.2 601C728.3 601 685.7 601 642.8 601C600 601 557 601 514.2 601C471.3 601 428.7 601 385.8 601C343 601 300 601 257.2 601C214.3 601 171.7 601 128.8 601C86 601 43 601 21.5 601L0 601Z" fill="#1c1a2f"></path></svg>